<mxfile host="app.diagrams.net" modified="2021-05-15T07:33:12.214Z" agent="5.0 (Windows)" etag="Nlx4MS-io6V0wcsf5i_B" version="14.6.12" type="github">
  <diagram id="5WZkv0eeYpmpaQnzzO1f" name="Page-1">
    <mxGraphModel dx="2634" dy="585" grid="1" gridSize="10" guides="1" tooltips="1" connect="1" arrows="1" fold="1" page="1" pageScale="1" pageWidth="827" pageHeight="1169" math="0" shadow="0">
      <root>
        <mxCell id="0" />
        <mxCell id="1" parent="0" />
        <mxCell id="6KQSLUlXz9a6ZsbGVFf4-21" style="edgeStyle=orthogonalEdgeStyle;rounded=0;orthogonalLoop=1;jettySize=auto;html=1;exitX=1;exitY=0.25;exitDx=0;exitDy=0;" parent="1" source="FqCilQHqINg6GPOchnON-1" target="6KQSLUlXz9a6ZsbGVFf4-22" edge="1">
          <mxGeometry relative="1" as="geometry">
            <mxPoint x="-370" y="110" as="targetPoint" />
            <Array as="points">
              <mxPoint x="-530" y="125" />
            </Array>
          </mxGeometry>
        </mxCell>
        <mxCell id="6KQSLUlXz9a6ZsbGVFf4-60" value="" style="edgeStyle=orthogonalEdgeStyle;rounded=0;orthogonalLoop=1;jettySize=auto;html=1;" parent="1" source="FqCilQHqINg6GPOchnON-1" target="6KQSLUlXz9a6ZsbGVFf4-45" edge="1">
          <mxGeometry relative="1" as="geometry" />
        </mxCell>
        <mxCell id="6KQSLUlXz9a6ZsbGVFf4-62" style="edgeStyle=orthogonalEdgeStyle;rounded=0;orthogonalLoop=1;jettySize=auto;html=1;exitX=1;exitY=0.75;exitDx=0;exitDy=0;" parent="1" source="FqCilQHqINg6GPOchnON-1" target="6KQSLUlXz9a6ZsbGVFf4-52" edge="1">
          <mxGeometry relative="1" as="geometry">
            <Array as="points">
              <mxPoint x="-430" y="110" />
            </Array>
          </mxGeometry>
        </mxCell>
        <mxCell id="usRXnRFZm17M64GT9pBI-6" style="edgeStyle=orthogonalEdgeStyle;rounded=0;orthogonalLoop=1;jettySize=auto;html=1;" parent="1" source="FqCilQHqINg6GPOchnON-1" target="usRXnRFZm17M64GT9pBI-5" edge="1">
          <mxGeometry relative="1" as="geometry">
            <Array as="points">
              <mxPoint x="-440" y="100" />
              <mxPoint x="-440" y="100" />
            </Array>
          </mxGeometry>
        </mxCell>
        <mxCell id="h6Zp_HKWGdJFtF2wPUyF-5" style="edgeStyle=orthogonalEdgeStyle;rounded=0;orthogonalLoop=1;jettySize=auto;html=1;entryX=0.009;entryY=0.597;entryDx=0;entryDy=0;entryPerimeter=0;" parent="1" source="FqCilQHqINg6GPOchnON-1" target="h6Zp_HKWGdJFtF2wPUyF-4" edge="1">
          <mxGeometry relative="1" as="geometry">
            <Array as="points">
              <mxPoint x="-420" y="152" />
              <mxPoint x="-420" y="152" />
            </Array>
          </mxGeometry>
        </mxCell>
        <mxCell id="FqCilQHqINg6GPOchnON-1" value="immobile privato" style="rounded=0;whiteSpace=wrap;html=1;" parent="1" vertex="1">
          <mxGeometry x="-550" y="110" width="120" height="60" as="geometry" />
        </mxCell>
        <mxCell id="FqCilQHqINg6GPOchnON-3" value="" style="edgeStyle=orthogonalEdgeStyle;rounded=0;orthogonalLoop=1;jettySize=auto;html=1;" parent="1" source="FqCilQHqINg6GPOchnON-1" target="FqCilQHqINg6GPOchnON-2" edge="1">
          <mxGeometry relative="1" as="geometry" />
        </mxCell>
        <mxCell id="FqCilQHqINg6GPOchnON-5" value="" style="edgeStyle=orthogonalEdgeStyle;rounded=0;orthogonalLoop=1;jettySize=auto;html=1;" parent="1" source="FqCilQHqINg6GPOchnON-2" target="FqCilQHqINg6GPOchnON-4" edge="1">
          <mxGeometry relative="1" as="geometry" />
        </mxCell>
        <mxCell id="FqCilQHqINg6GPOchnON-2" value="formato" style="rhombus;whiteSpace=wrap;html=1;rounded=0;" parent="1" vertex="1">
          <mxGeometry x="-530" y="220" width="80" height="80" as="geometry" />
        </mxCell>
        <mxCell id="6KQSLUlXz9a6ZsbGVFf4-16" style="edgeStyle=orthogonalEdgeStyle;rounded=0;orthogonalLoop=1;jettySize=auto;html=1;exitX=1;exitY=1;exitDx=0;exitDy=0;entryX=0.5;entryY=1;entryDx=0;entryDy=0;" parent="1" source="FqCilQHqINg6GPOchnON-4" target="6KQSLUlXz9a6ZsbGVFf4-14" edge="1">
          <mxGeometry relative="1" as="geometry" />
        </mxCell>
        <mxCell id="6KQSLUlXz9a6ZsbGVFf4-64" value="" style="edgeStyle=orthogonalEdgeStyle;rounded=0;orthogonalLoop=1;jettySize=auto;html=1;" parent="1" source="FqCilQHqINg6GPOchnON-4" target="6KQSLUlXz9a6ZsbGVFf4-63" edge="1">
          <mxGeometry relative="1" as="geometry">
            <Array as="points">
              <mxPoint x="-390" y="369" />
              <mxPoint x="-390" y="369" />
            </Array>
          </mxGeometry>
        </mxCell>
        <mxCell id="6KQSLUlXz9a6ZsbGVFf4-108" style="edgeStyle=orthogonalEdgeStyle;rounded=0;orthogonalLoop=1;jettySize=auto;html=1;exitX=0;exitY=1;exitDx=0;exitDy=0;entryX=0.62;entryY=1.05;entryDx=0;entryDy=0;entryPerimeter=0;" parent="1" source="FqCilQHqINg6GPOchnON-4" target="6KQSLUlXz9a6ZsbGVFf4-48" edge="1">
          <mxGeometry relative="1" as="geometry" />
        </mxCell>
        <mxCell id="6KQSLUlXz9a6ZsbGVFf4-111" value="" style="edgeStyle=orthogonalEdgeStyle;rounded=0;orthogonalLoop=1;jettySize=auto;html=1;" parent="1" source="FqCilQHqINg6GPOchnON-4" target="6KQSLUlXz9a6ZsbGVFf4-110" edge="1">
          <mxGeometry relative="1" as="geometry" />
        </mxCell>
        <mxCell id="usRXnRFZm17M64GT9pBI-8" style="edgeStyle=orthogonalEdgeStyle;rounded=0;orthogonalLoop=1;jettySize=auto;html=1;entryX=0.5;entryY=0;entryDx=0;entryDy=0;" parent="1" source="FqCilQHqINg6GPOchnON-4" target="6KQSLUlXz9a6ZsbGVFf4-17" edge="1">
          <mxGeometry relative="1" as="geometry">
            <Array as="points">
              <mxPoint x="-535" y="410" />
              <mxPoint x="-535" y="410" />
            </Array>
          </mxGeometry>
        </mxCell>
        <mxCell id="FqCilQHqINg6GPOchnON-4" value="appartamenti" style="whiteSpace=wrap;html=1;rounded=0;direction=west;" parent="1" vertex="1">
          <mxGeometry x="-550" y="340" width="120" height="60" as="geometry" />
        </mxCell>
        <mxCell id="6KQSLUlXz9a6ZsbGVFf4-14" value="piano" style="text;html=1;strokeColor=none;fillColor=none;align=center;verticalAlign=middle;whiteSpace=wrap;rounded=0;" parent="1" vertex="1">
          <mxGeometry x="-560" y="300" width="40" height="20" as="geometry" />
        </mxCell>
        <mxCell id="6KQSLUlXz9a6ZsbGVFf4-17" value="superficie" style="text;html=1;strokeColor=none;fillColor=none;align=center;verticalAlign=middle;whiteSpace=wrap;rounded=0;" parent="1" vertex="1">
          <mxGeometry x="-610" y="420" width="70" height="20" as="geometry" />
        </mxCell>
        <mxCell id="6KQSLUlXz9a6ZsbGVFf4-22" value="via" style="text;html=1;strokeColor=none;fillColor=none;align=center;verticalAlign=middle;whiteSpace=wrap;rounded=0;" parent="1" vertex="1">
          <mxGeometry x="-550" y="50" width="40" height="20" as="geometry" />
        </mxCell>
        <mxCell id="6KQSLUlXz9a6ZsbGVFf4-45" value="cittÃ " style="text;html=1;resizable=0;autosize=1;align=center;verticalAlign=middle;points=[];fillColor=none;strokeColor=none;rounded=0;" parent="1" vertex="1">
          <mxGeometry x="-510" y="50" width="40" height="20" as="geometry" />
        </mxCell>
        <mxCell id="6KQSLUlXz9a6ZsbGVFf4-48" value="costo" style="text;html=1;resizable=0;autosize=1;align=center;verticalAlign=middle;points=[];fillColor=none;strokeColor=none;rounded=0;" parent="1" vertex="1">
          <mxGeometry x="-470" y="300" width="50" height="20" as="geometry" />
        </mxCell>
        <mxCell id="6KQSLUlXz9a6ZsbGVFf4-52" value="anno" style="text;html=1;resizable=0;autosize=1;align=center;verticalAlign=middle;points=[];fillColor=none;strokeColor=none;rounded=0;" parent="1" vertex="1">
          <mxGeometry x="-390" y="100" width="40" height="20" as="geometry" />
        </mxCell>
        <mxCell id="6KQSLUlXz9a6ZsbGVFf4-66" value="" style="edgeStyle=orthogonalEdgeStyle;rounded=0;orthogonalLoop=1;jettySize=auto;html=1;" parent="1" source="6KQSLUlXz9a6ZsbGVFf4-63" target="6KQSLUlXz9a6ZsbGVFf4-65" edge="1">
          <mxGeometry relative="1" as="geometry">
            <Array as="points">
              <mxPoint x="-260" y="360" />
              <mxPoint x="-260" y="360" />
            </Array>
          </mxGeometry>
        </mxCell>
        <mxCell id="6KQSLUlXz9a6ZsbGVFf4-63" value="&lt;div&gt;sono &lt;br&gt;&lt;/div&gt;&lt;div&gt;vicini&lt;br&gt;&lt;/div&gt;&lt;div&gt;a &lt;/div&gt;" style="rhombus;whiteSpace=wrap;html=1;rounded=0;" parent="1" vertex="1">
          <mxGeometry x="-329" y="329" width="80" height="80" as="geometry" />
        </mxCell>
        <mxCell id="6KQSLUlXz9a6ZsbGVFf4-67" style="edgeStyle=orthogonalEdgeStyle;rounded=0;orthogonalLoop=1;jettySize=auto;html=1;exitX=0.25;exitY=0;exitDx=0;exitDy=0;entryX=0.55;entryY=1.2;entryDx=0;entryDy=0;entryPerimeter=0;" parent="1" source="6KQSLUlXz9a6ZsbGVFf4-65" target="6KQSLUlXz9a6ZsbGVFf4-68" edge="1">
          <mxGeometry relative="1" as="geometry">
            <mxPoint x="-160" y="300" as="targetPoint" />
          </mxGeometry>
        </mxCell>
        <mxCell id="usRXnRFZm17M64GT9pBI-40" style="edgeStyle=orthogonalEdgeStyle;rounded=0;orthogonalLoop=1;jettySize=auto;html=1;entryX=0.283;entryY=1.029;entryDx=0;entryDy=0;entryPerimeter=0;" parent="1" source="6KQSLUlXz9a6ZsbGVFf4-65" target="usRXnRFZm17M64GT9pBI-39" edge="1">
          <mxGeometry relative="1" as="geometry" />
        </mxCell>
        <mxCell id="h6Zp_HKWGdJFtF2wPUyF-7" style="edgeStyle=orthogonalEdgeStyle;rounded=0;orthogonalLoop=1;jettySize=auto;html=1;entryX=0.447;entryY=1.028;entryDx=0;entryDy=0;entryPerimeter=0;" parent="1" source="6KQSLUlXz9a6ZsbGVFf4-65" target="h6Zp_HKWGdJFtF2wPUyF-6" edge="1">
          <mxGeometry relative="1" as="geometry">
            <Array as="points">
              <mxPoint x="-80" y="320" />
              <mxPoint x="-50" y="320" />
            </Array>
          </mxGeometry>
        </mxCell>
        <mxCell id="6KQSLUlXz9a6ZsbGVFf4-65" value="Att_turistiche" style="whiteSpace=wrap;html=1;rounded=0;" parent="1" vertex="1">
          <mxGeometry x="-190" y="340" width="120" height="60" as="geometry" />
        </mxCell>
        <mxCell id="6KQSLUlXz9a6ZsbGVFf4-68" value="via" style="text;html=1;resizable=0;autosize=1;align=center;verticalAlign=middle;points=[];fillColor=none;strokeColor=none;rounded=0;" parent="1" vertex="1">
          <mxGeometry x="-175" y="290" width="30" height="20" as="geometry" />
        </mxCell>
        <mxCell id="usRXnRFZm17M64GT9pBI-3" value="" style="edgeStyle=orthogonalEdgeStyle;rounded=0;orthogonalLoop=1;jettySize=auto;html=1;" parent="1" source="6KQSLUlXz9a6ZsbGVFf4-71" target="FqCilQHqINg6GPOchnON-1" edge="1">
          <mxGeometry relative="1" as="geometry" />
        </mxCell>
        <mxCell id="6KQSLUlXz9a6ZsbGVFf4-71" value="gestice" style="rhombus;whiteSpace=wrap;html=1;rounded=0;" parent="1" vertex="1">
          <mxGeometry x="-705" y="100" width="80" height="80" as="geometry" />
        </mxCell>
        <mxCell id="6KQSLUlXz9a6ZsbGVFf4-80" style="edgeStyle=orthogonalEdgeStyle;rounded=0;orthogonalLoop=1;jettySize=auto;html=1;exitX=0;exitY=0;exitDx=0;exitDy=0;entryX=0.525;entryY=1.1;entryDx=0;entryDy=0;entryPerimeter=0;" parent="1" source="6KQSLUlXz9a6ZsbGVFf4-73" target="6KQSLUlXz9a6ZsbGVFf4-77" edge="1">
          <mxGeometry relative="1" as="geometry" />
        </mxCell>
        <mxCell id="6KQSLUlXz9a6ZsbGVFf4-81" style="edgeStyle=orthogonalEdgeStyle;rounded=0;orthogonalLoop=1;jettySize=auto;html=1;exitX=0.5;exitY=0;exitDx=0;exitDy=0;entryX=0.525;entryY=1.05;entryDx=0;entryDy=0;entryPerimeter=0;" parent="1" source="6KQSLUlXz9a6ZsbGVFf4-73" target="6KQSLUlXz9a6ZsbGVFf4-76" edge="1">
          <mxGeometry relative="1" as="geometry" />
        </mxCell>
        <mxCell id="6KQSLUlXz9a6ZsbGVFf4-82" style="edgeStyle=orthogonalEdgeStyle;rounded=0;orthogonalLoop=1;jettySize=auto;html=1;exitX=1;exitY=0;exitDx=0;exitDy=0;entryX=0.525;entryY=1.1;entryDx=0;entryDy=0;entryPerimeter=0;" parent="1" source="6KQSLUlXz9a6ZsbGVFf4-73" target="6KQSLUlXz9a6ZsbGVFf4-75" edge="1">
          <mxGeometry relative="1" as="geometry" />
        </mxCell>
        <mxCell id="6KQSLUlXz9a6ZsbGVFf4-91" style="edgeStyle=orthogonalEdgeStyle;rounded=0;orthogonalLoop=1;jettySize=auto;html=1;exitX=0;exitY=0.25;exitDx=0;exitDy=0;" parent="1" source="6KQSLUlXz9a6ZsbGVFf4-73" target="6KQSLUlXz9a6ZsbGVFf4-84" edge="1">
          <mxGeometry relative="1" as="geometry" />
        </mxCell>
        <mxCell id="6KQSLUlXz9a6ZsbGVFf4-92" style="edgeStyle=orthogonalEdgeStyle;rounded=0;orthogonalLoop=1;jettySize=auto;html=1;exitX=0;exitY=0;exitDx=0;exitDy=0;" parent="1" source="6KQSLUlXz9a6ZsbGVFf4-73" target="6KQSLUlXz9a6ZsbGVFf4-83" edge="1">
          <mxGeometry relative="1" as="geometry">
            <Array as="points">
              <mxPoint x="-920" y="110" />
              <mxPoint x="-920" y="110" />
            </Array>
          </mxGeometry>
        </mxCell>
        <mxCell id="6KQSLUlXz9a6ZsbGVFf4-95" style="edgeStyle=orthogonalEdgeStyle;rounded=0;orthogonalLoop=1;jettySize=auto;html=1;exitX=0.25;exitY=1;exitDx=0;exitDy=0;entryX=1.014;entryY=0.529;entryDx=0;entryDy=0;entryPerimeter=0;" parent="1" source="6KQSLUlXz9a6ZsbGVFf4-73" target="6KQSLUlXz9a6ZsbGVFf4-94" edge="1">
          <mxGeometry relative="1" as="geometry">
            <mxPoint x="-989" y="171" as="targetPoint" />
            <Array as="points">
              <mxPoint x="-880" y="160" />
              <mxPoint x="-920" y="160" />
              <mxPoint x="-920" y="181" />
            </Array>
          </mxGeometry>
        </mxCell>
        <mxCell id="usRXnRFZm17M64GT9pBI-2" value="" style="edgeStyle=orthogonalEdgeStyle;rounded=0;orthogonalLoop=1;jettySize=auto;html=1;" parent="1" source="6KQSLUlXz9a6ZsbGVFf4-73" target="6KQSLUlXz9a6ZsbGVFf4-71" edge="1">
          <mxGeometry relative="1" as="geometry">
            <Array as="points">
              <mxPoint x="-720" y="140" />
              <mxPoint x="-720" y="140" />
            </Array>
          </mxGeometry>
        </mxCell>
        <mxCell id="usRXnRFZm17M64GT9pBI-45" value="" style="edgeStyle=orthogonalEdgeStyle;rounded=0;orthogonalLoop=1;jettySize=auto;html=1;" parent="1" source="6KQSLUlXz9a6ZsbGVFf4-73" target="usRXnRFZm17M64GT9pBI-44" edge="1">
          <mxGeometry relative="1" as="geometry" />
        </mxCell>
        <mxCell id="6KQSLUlXz9a6ZsbGVFf4-73" value="proprietario" style="whiteSpace=wrap;html=1;rounded=0;" parent="1" vertex="1">
          <mxGeometry x="-910" y="110" width="120" height="60" as="geometry" />
        </mxCell>
        <mxCell id="6KQSLUlXz9a6ZsbGVFf4-75" value="&lt;u&gt;cf&lt;/u&gt;" style="text;html=1;resizable=0;autosize=1;align=center;verticalAlign=middle;points=[];fillColor=none;strokeColor=none;rounded=0;" parent="1" vertex="1">
          <mxGeometry x="-817" y="60" width="20" height="20" as="geometry" />
        </mxCell>
        <mxCell id="6KQSLUlXz9a6ZsbGVFf4-76" value="cognome" style="text;html=1;resizable=0;autosize=1;align=center;verticalAlign=middle;points=[];fillColor=none;strokeColor=none;rounded=0;" parent="1" vertex="1">
          <mxGeometry x="-885" y="60" width="70" height="20" as="geometry" />
        </mxCell>
        <mxCell id="6KQSLUlXz9a6ZsbGVFf4-77" value="nome" style="text;html=1;resizable=0;autosize=1;align=center;verticalAlign=middle;points=[];fillColor=none;strokeColor=none;rounded=0;" parent="1" vertex="1">
          <mxGeometry x="-925" y="60" width="50" height="20" as="geometry" />
        </mxCell>
        <mxCell id="6KQSLUlXz9a6ZsbGVFf4-83" value="email" style="text;html=1;resizable=0;autosize=1;align=center;verticalAlign=middle;points=[];fillColor=none;strokeColor=none;rounded=0;" parent="1" vertex="1">
          <mxGeometry x="-1005" y="100" width="50" height="20" as="geometry" />
        </mxCell>
        <mxCell id="6KQSLUlXz9a6ZsbGVFf4-84" value="telefono" style="text;html=1;resizable=0;autosize=1;align=center;verticalAlign=middle;points=[];fillColor=none;strokeColor=none;rounded=0;" parent="1" vertex="1">
          <mxGeometry x="-1015" y="140" width="60" height="20" as="geometry" />
        </mxCell>
        <mxCell id="6KQSLUlXz9a6ZsbGVFf4-94" value="iban" style="text;html=1;resizable=0;autosize=1;align=center;verticalAlign=middle;points=[];fillColor=none;strokeColor=none;rounded=0;" parent="1" vertex="1">
          <mxGeometry x="-1005" y="170" width="40" height="20" as="geometry" />
        </mxCell>
        <mxCell id="6KQSLUlXz9a6ZsbGVFf4-138" style="edgeStyle=orthogonalEdgeStyle;rounded=0;orthogonalLoop=1;jettySize=auto;html=1;exitX=1;exitY=0.25;exitDx=0;exitDy=0;entryX=0.05;entryY=0.6;entryDx=0;entryDy=0;entryPerimeter=0;" parent="1" source="6KQSLUlXz9a6ZsbGVFf4-99" target="6KQSLUlXz9a6ZsbGVFf4-135" edge="1">
          <mxGeometry relative="1" as="geometry" />
        </mxCell>
        <mxCell id="6KQSLUlXz9a6ZsbGVFf4-139" style="edgeStyle=orthogonalEdgeStyle;rounded=0;orthogonalLoop=1;jettySize=auto;html=1;exitX=1;exitY=0.5;exitDx=0;exitDy=0;" parent="1" source="6KQSLUlXz9a6ZsbGVFf4-99" target="6KQSLUlXz9a6ZsbGVFf4-136" edge="1">
          <mxGeometry relative="1" as="geometry" />
        </mxCell>
        <mxCell id="6KQSLUlXz9a6ZsbGVFf4-140" style="edgeStyle=orthogonalEdgeStyle;rounded=0;orthogonalLoop=1;jettySize=auto;html=1;exitX=1;exitY=0.75;exitDx=0;exitDy=0;" parent="1" source="6KQSLUlXz9a6ZsbGVFf4-99" target="6KQSLUlXz9a6ZsbGVFf4-137" edge="1">
          <mxGeometry relative="1" as="geometry" />
        </mxCell>
        <mxCell id="6KQSLUlXz9a6ZsbGVFf4-144" style="edgeStyle=orthogonalEdgeStyle;rounded=0;orthogonalLoop=1;jettySize=auto;html=1;exitX=0;exitY=0.25;exitDx=0;exitDy=0;" parent="1" source="6KQSLUlXz9a6ZsbGVFf4-99" edge="1">
          <mxGeometry relative="1" as="geometry">
            <mxPoint x="-590" y="640" as="targetPoint" />
            <Array as="points">
              <mxPoint x="-550" y="640" />
            </Array>
          </mxGeometry>
        </mxCell>
        <mxCell id="6KQSLUlXz9a6ZsbGVFf4-145" style="edgeStyle=orthogonalEdgeStyle;rounded=0;orthogonalLoop=1;jettySize=auto;html=1;exitX=0;exitY=0.5;exitDx=0;exitDy=0;entryX=1.025;entryY=0.45;entryDx=0;entryDy=0;entryPerimeter=0;" parent="1" source="6KQSLUlXz9a6ZsbGVFf4-99" target="6KQSLUlXz9a6ZsbGVFf4-142" edge="1">
          <mxGeometry relative="1" as="geometry" />
        </mxCell>
        <mxCell id="6KQSLUlXz9a6ZsbGVFf4-146" style="edgeStyle=orthogonalEdgeStyle;rounded=0;orthogonalLoop=1;jettySize=auto;html=1;exitX=0;exitY=0.75;exitDx=0;exitDy=0;entryX=1.1;entryY=0.6;entryDx=0;entryDy=0;entryPerimeter=0;" parent="1" source="6KQSLUlXz9a6ZsbGVFf4-99" target="6KQSLUlXz9a6ZsbGVFf4-143" edge="1">
          <mxGeometry relative="1" as="geometry" />
        </mxCell>
        <mxCell id="6KQSLUlXz9a6ZsbGVFf4-149" style="edgeStyle=orthogonalEdgeStyle;rounded=0;orthogonalLoop=1;jettySize=auto;html=1;exitX=1;exitY=1;exitDx=0;exitDy=0;entryX=0.675;entryY=0.05;entryDx=0;entryDy=0;entryPerimeter=0;" parent="1" source="6KQSLUlXz9a6ZsbGVFf4-99" target="6KQSLUlXz9a6ZsbGVFf4-147" edge="1">
          <mxGeometry relative="1" as="geometry">
            <Array as="points">
              <mxPoint x="-429" y="700" />
            </Array>
          </mxGeometry>
        </mxCell>
        <mxCell id="6KQSLUlXz9a6ZsbGVFf4-150" style="edgeStyle=orthogonalEdgeStyle;rounded=0;orthogonalLoop=1;jettySize=auto;html=1;exitX=0.75;exitY=1;exitDx=0;exitDy=0;entryX=0.6;entryY=0;entryDx=0;entryDy=0;entryPerimeter=0;" parent="1" source="6KQSLUlXz9a6ZsbGVFf4-99" target="6KQSLUlXz9a6ZsbGVFf4-148" edge="1">
          <mxGeometry relative="1" as="geometry">
            <mxPoint x="-483" y="747" as="targetPoint" />
            <Array as="points">
              <mxPoint x="-475" y="700" />
              <mxPoint x="-475" y="780" />
              <mxPoint x="-470" y="780" />
            </Array>
          </mxGeometry>
        </mxCell>
        <mxCell id="6KQSLUlXz9a6ZsbGVFf4-152" style="edgeStyle=orthogonalEdgeStyle;rounded=0;orthogonalLoop=1;jettySize=auto;html=1;exitX=0.25;exitY=1;exitDx=0;exitDy=0;entryX=0.5;entryY=0;entryDx=0;entryDy=0;entryPerimeter=0;" parent="1" source="6KQSLUlXz9a6ZsbGVFf4-99" target="6KQSLUlXz9a6ZsbGVFf4-151" edge="1">
          <mxGeometry relative="1" as="geometry" />
        </mxCell>
        <mxCell id="6KQSLUlXz9a6ZsbGVFf4-153" style="edgeStyle=orthogonalEdgeStyle;rounded=0;orthogonalLoop=1;jettySize=auto;html=1;exitX=0;exitY=1;exitDx=0;exitDy=0;entryX=0.7;entryY=0;entryDx=0;entryDy=0;entryPerimeter=0;" parent="1" source="6KQSLUlXz9a6ZsbGVFf4-99" target="6KQSLUlXz9a6ZsbGVFf4-154" edge="1">
          <mxGeometry relative="1" as="geometry">
            <mxPoint x="-550" y="750" as="targetPoint" />
          </mxGeometry>
        </mxCell>
        <mxCell id="6KQSLUlXz9a6ZsbGVFf4-157" style="edgeStyle=orthogonalEdgeStyle;rounded=0;orthogonalLoop=1;jettySize=auto;html=1;exitX=1;exitY=0;exitDx=0;exitDy=0;entryX=0;entryY=0.4;entryDx=0;entryDy=0;entryPerimeter=0;" parent="1" source="6KQSLUlXz9a6ZsbGVFf4-99" target="6KQSLUlXz9a6ZsbGVFf4-155" edge="1">
          <mxGeometry relative="1" as="geometry" />
        </mxCell>
        <mxCell id="usRXnRFZm17M64GT9pBI-13" style="edgeStyle=orthogonalEdgeStyle;rounded=0;orthogonalLoop=1;jettySize=auto;html=1;entryX=0.983;entryY=0.675;entryDx=0;entryDy=0;entryPerimeter=0;" parent="1" source="6KQSLUlXz9a6ZsbGVFf4-99" target="usRXnRFZm17M64GT9pBI-12" edge="1">
          <mxGeometry relative="1" as="geometry">
            <Array as="points">
              <mxPoint x="-570" y="690" />
              <mxPoint x="-570" y="734" />
              <mxPoint x="-620" y="734" />
            </Array>
          </mxGeometry>
        </mxCell>
        <mxCell id="usRXnRFZm17M64GT9pBI-21" value="" style="edgeStyle=orthogonalEdgeStyle;rounded=0;orthogonalLoop=1;jettySize=auto;html=1;" parent="1" source="6KQSLUlXz9a6ZsbGVFf4-99" target="usRXnRFZm17M64GT9pBI-20" edge="1">
          <mxGeometry relative="1" as="geometry" />
        </mxCell>
        <mxCell id="6KQSLUlXz9a6ZsbGVFf4-99" value="utente" style="rounded=0;whiteSpace=wrap;html=1;" parent="1" vertex="1">
          <mxGeometry x="-550" y="640" width="120" height="60" as="geometry" />
        </mxCell>
        <mxCell id="6KQSLUlXz9a6ZsbGVFf4-113" value="" style="edgeStyle=orthogonalEdgeStyle;rounded=0;orthogonalLoop=1;jettySize=auto;html=1;" parent="1" source="6KQSLUlXz9a6ZsbGVFf4-110" target="6KQSLUlXz9a6ZsbGVFf4-112" edge="1">
          <mxGeometry relative="1" as="geometry" />
        </mxCell>
        <mxCell id="6KQSLUlXz9a6ZsbGVFf4-110" value="possiede" style="rhombus;whiteSpace=wrap;html=1;rounded=0;" parent="1" vertex="1">
          <mxGeometry x="-660" y="330" width="80" height="80" as="geometry" />
        </mxCell>
        <mxCell id="6KQSLUlXz9a6ZsbGVFf4-123" style="edgeStyle=orthogonalEdgeStyle;rounded=0;orthogonalLoop=1;jettySize=auto;html=1;exitX=0;exitY=0;exitDx=0;exitDy=0;entryX=0.425;entryY=1;entryDx=0;entryDy=0;entryPerimeter=0;" parent="1" source="6KQSLUlXz9a6ZsbGVFf4-112" target="6KQSLUlXz9a6ZsbGVFf4-114" edge="1">
          <mxGeometry relative="1" as="geometry">
            <Array as="points">
              <mxPoint x="-801" y="340" />
              <mxPoint x="-801" y="320" />
            </Array>
          </mxGeometry>
        </mxCell>
        <mxCell id="6KQSLUlXz9a6ZsbGVFf4-124" style="edgeStyle=orthogonalEdgeStyle;rounded=0;orthogonalLoop=1;jettySize=auto;html=1;exitX=0.25;exitY=0;exitDx=0;exitDy=0;entryX=0.325;entryY=1.15;entryDx=0;entryDy=0;entryPerimeter=0;" parent="1" source="6KQSLUlXz9a6ZsbGVFf4-112" target="6KQSLUlXz9a6ZsbGVFf4-115" edge="1">
          <mxGeometry relative="1" as="geometry" />
        </mxCell>
        <mxCell id="6KQSLUlXz9a6ZsbGVFf4-125" style="edgeStyle=orthogonalEdgeStyle;rounded=0;orthogonalLoop=1;jettySize=auto;html=1;exitX=1;exitY=0;exitDx=0;exitDy=0;" parent="1" source="6KQSLUlXz9a6ZsbGVFf4-112" edge="1">
          <mxGeometry relative="1" as="geometry">
            <mxPoint x="-700" y="310" as="targetPoint" />
          </mxGeometry>
        </mxCell>
        <mxCell id="h6Zp_HKWGdJFtF2wPUyF-11" style="edgeStyle=orthogonalEdgeStyle;rounded=0;orthogonalLoop=1;jettySize=auto;html=1;" parent="1" source="6KQSLUlXz9a6ZsbGVFf4-112" target="h6Zp_HKWGdJFtF2wPUyF-10" edge="1">
          <mxGeometry relative="1" as="geometry">
            <Array as="points">
              <mxPoint x="-820" y="360" />
              <mxPoint x="-820" y="360" />
            </Array>
          </mxGeometry>
        </mxCell>
        <mxCell id="6KQSLUlXz9a6ZsbGVFf4-112" value="recensioni" style="whiteSpace=wrap;html=1;rounded=0;" parent="1" vertex="1">
          <mxGeometry x="-810" y="340" width="120" height="60" as="geometry" />
        </mxCell>
        <mxCell id="6KQSLUlXz9a6ZsbGVFf4-114" value="posizione" style="text;html=1;resizable=0;autosize=1;align=center;verticalAlign=middle;points=[];fillColor=none;strokeColor=none;rounded=0;" parent="1" vertex="1">
          <mxGeometry x="-832" y="280" width="70" height="20" as="geometry" />
        </mxCell>
        <mxCell id="6KQSLUlXz9a6ZsbGVFf4-115" value="qualita/prezzo" style="text;html=1;resizable=0;autosize=1;align=center;verticalAlign=middle;points=[];fillColor=none;strokeColor=none;rounded=0;" parent="1" vertex="1">
          <mxGeometry x="-795" y="300" width="90" height="20" as="geometry" />
        </mxCell>
        <mxCell id="6KQSLUlXz9a6ZsbGVFf4-130" value="servizio" style="text;html=1;resizable=0;autosize=1;align=center;verticalAlign=middle;points=[];fillColor=none;strokeColor=none;rounded=0;" parent="1" vertex="1">
          <mxGeometry x="-730" y="280" width="60" height="20" as="geometry" />
        </mxCell>
        <mxCell id="6KQSLUlXz9a6ZsbGVFf4-135" value="nome" style="text;html=1;resizable=0;autosize=1;align=center;verticalAlign=middle;points=[];fillColor=none;strokeColor=none;rounded=0;" parent="1" vertex="1">
          <mxGeometry x="-390" y="630" width="50" height="20" as="geometry" />
        </mxCell>
        <mxCell id="6KQSLUlXz9a6ZsbGVFf4-136" value="cognome" style="text;html=1;resizable=0;autosize=1;align=center;verticalAlign=middle;points=[];fillColor=none;strokeColor=none;rounded=0;" parent="1" vertex="1">
          <mxGeometry x="-395" y="660" width="70" height="20" as="geometry" />
        </mxCell>
        <mxCell id="6KQSLUlXz9a6ZsbGVFf4-137" value="&lt;u&gt;cf&lt;/u&gt;" style="text;html=1;resizable=0;autosize=1;align=center;verticalAlign=middle;points=[];fillColor=none;strokeColor=none;rounded=0;" parent="1" vertex="1">
          <mxGeometry x="-380" y="690" width="20" height="20" as="geometry" />
        </mxCell>
        <mxCell id="6KQSLUlXz9a6ZsbGVFf4-141" value="username" style="text;html=1;resizable=0;autosize=1;align=center;verticalAlign=middle;points=[];fillColor=none;strokeColor=none;rounded=0;" parent="1" vertex="1">
          <mxGeometry x="-655" y="630" width="70" height="20" as="geometry" />
        </mxCell>
        <mxCell id="6KQSLUlXz9a6ZsbGVFf4-142" value="pw" style="text;html=1;resizable=0;autosize=1;align=center;verticalAlign=middle;points=[];fillColor=none;strokeColor=none;rounded=0;" parent="1" vertex="1">
          <mxGeometry x="-635" y="660" width="30" height="20" as="geometry" />
        </mxCell>
        <mxCell id="6KQSLUlXz9a6ZsbGVFf4-143" value="email" style="text;html=1;resizable=0;autosize=1;align=center;verticalAlign=middle;points=[];fillColor=none;strokeColor=none;rounded=0;" parent="1" vertex="1">
          <mxGeometry x="-670" y="690" width="50" height="20" as="geometry" />
        </mxCell>
        <mxCell id="6KQSLUlXz9a6ZsbGVFf4-147" value="sesso" style="text;html=1;resizable=0;autosize=1;align=center;verticalAlign=middle;points=[];fillColor=none;strokeColor=none;rounded=0;" parent="1" vertex="1">
          <mxGeometry x="-463" y="740" width="50" height="20" as="geometry" />
        </mxCell>
        <mxCell id="6KQSLUlXz9a6ZsbGVFf4-148" value="dataN" style="text;html=1;resizable=0;autosize=1;align=center;verticalAlign=middle;points=[];fillColor=none;strokeColor=none;rounded=0;" parent="1" vertex="1">
          <mxGeometry x="-500" y="800" width="50" height="20" as="geometry" />
        </mxCell>
        <mxCell id="6KQSLUlXz9a6ZsbGVFf4-151" value="via" style="text;html=1;resizable=0;autosize=1;align=center;verticalAlign=middle;points=[];fillColor=none;strokeColor=none;rounded=0;" parent="1" vertex="1">
          <mxGeometry x="-535" y="760" width="30" height="20" as="geometry" />
        </mxCell>
        <mxCell id="6KQSLUlXz9a6ZsbGVFf4-154" value="citta" style="text;html=1;resizable=0;autosize=1;align=center;verticalAlign=middle;points=[];fillColor=none;strokeColor=none;rounded=0;" parent="1" vertex="1">
          <mxGeometry x="-575" y="750" width="40" height="20" as="geometry" />
        </mxCell>
        <mxCell id="6KQSLUlXz9a6ZsbGVFf4-155" value="&lt;div&gt;M_Pagamento&lt;/div&gt;" style="text;html=1;resizable=0;autosize=1;align=center;verticalAlign=middle;points=[];fillColor=none;strokeColor=none;rounded=0;" parent="1" vertex="1">
          <mxGeometry x="-400" y="585" width="100" height="20" as="geometry" />
        </mxCell>
        <mxCell id="usRXnRFZm17M64GT9pBI-5" value="provincia" style="text;html=1;align=center;verticalAlign=middle;resizable=0;points=[];autosize=1;strokeColor=none;" parent="1" vertex="1">
          <mxGeometry x="-470" y="50" width="60" height="20" as="geometry" />
        </mxCell>
        <mxCell id="usRXnRFZm17M64GT9pBI-12" value="cell" style="text;html=1;align=center;verticalAlign=middle;resizable=0;points=[];autosize=1;strokeColor=none;" parent="1" vertex="1">
          <mxGeometry x="-650" y="720" width="30" height="20" as="geometry" />
        </mxCell>
        <mxCell id="usRXnRFZm17M64GT9pBI-22" value="" style="edgeStyle=orthogonalEdgeStyle;rounded=0;orthogonalLoop=1;jettySize=auto;html=1;" parent="1" source="usRXnRFZm17M64GT9pBI-20" target="FqCilQHqINg6GPOchnON-4" edge="1">
          <mxGeometry relative="1" as="geometry" />
        </mxCell>
        <mxCell id="usRXnRFZm17M64GT9pBI-25" value="" style="edgeStyle=orthogonalEdgeStyle;rounded=0;orthogonalLoop=1;jettySize=auto;html=1;" parent="1" source="usRXnRFZm17M64GT9pBI-20" target="usRXnRFZm17M64GT9pBI-24" edge="1">
          <mxGeometry relative="1" as="geometry">
            <Array as="points">
              <mxPoint x="-440" y="540" />
              <mxPoint x="-440" y="540" />
            </Array>
          </mxGeometry>
        </mxCell>
        <mxCell id="usRXnRFZm17M64GT9pBI-27" style="edgeStyle=orthogonalEdgeStyle;rounded=0;orthogonalLoop=1;jettySize=auto;html=1;entryX=0.022;entryY=0.514;entryDx=0;entryDy=0;entryPerimeter=0;" parent="1" source="usRXnRFZm17M64GT9pBI-20" target="usRXnRFZm17M64GT9pBI-23" edge="1">
          <mxGeometry relative="1" as="geometry">
            <Array as="points">
              <mxPoint x="-450" y="490" />
            </Array>
          </mxGeometry>
        </mxCell>
        <mxCell id="usRXnRFZm17M64GT9pBI-20" value="prenota" style="rhombus;whiteSpace=wrap;html=1;" parent="1" vertex="1">
          <mxGeometry x="-530" y="480" width="80" height="80" as="geometry" />
        </mxCell>
        <mxCell id="usRXnRFZm17M64GT9pBI-23" value="dataInizio" style="text;html=1;align=center;verticalAlign=middle;resizable=0;points=[];autosize=1;strokeColor=none;" parent="1" vertex="1">
          <mxGeometry x="-435" y="490" width="70" height="20" as="geometry" />
        </mxCell>
        <mxCell id="usRXnRFZm17M64GT9pBI-24" value="dataFine" style="text;html=1;align=center;verticalAlign=middle;resizable=0;points=[];autosize=1;strokeColor=none;" parent="1" vertex="1">
          <mxGeometry x="-430" y="530" width="60" height="20" as="geometry" />
        </mxCell>
        <mxCell id="usRXnRFZm17M64GT9pBI-28" value="(0,M)" style="text;html=1;strokeColor=none;fillColor=none;align=center;verticalAlign=middle;whiteSpace=wrap;rounded=0;" parent="1" vertex="1">
          <mxGeometry x="-535" y="610" width="40" height="20" as="geometry" />
        </mxCell>
        <mxCell id="usRXnRFZm17M64GT9pBI-29" value="(0,M)" style="text;html=1;align=center;verticalAlign=middle;resizable=0;points=[];autosize=1;strokeColor=none;" parent="1" vertex="1">
          <mxGeometry x="-530" y="400" width="40" height="20" as="geometry" />
        </mxCell>
        <mxCell id="usRXnRFZm17M64GT9pBI-30" value="(0,M)" style="text;html=1;align=center;verticalAlign=middle;resizable=0;points=[];autosize=1;strokeColor=none;" parent="1" vertex="1">
          <mxGeometry x="-590" y="340" width="40" height="20" as="geometry" />
        </mxCell>
        <mxCell id="usRXnRFZm17M64GT9pBI-31" value="(1,M)" style="text;html=1;align=center;verticalAlign=middle;resizable=0;points=[];autosize=1;strokeColor=none;" parent="1" vertex="1">
          <mxGeometry x="-695" y="340" width="40" height="20" as="geometry" />
        </mxCell>
        <mxCell id="usRXnRFZm17M64GT9pBI-32" value="(0,M)" style="text;html=1;align=center;verticalAlign=middle;resizable=0;points=[];autosize=1;strokeColor=none;" parent="1" vertex="1">
          <mxGeometry x="-435" y="340" width="40" height="20" as="geometry" />
        </mxCell>
        <mxCell id="usRXnRFZm17M64GT9pBI-33" value="(1,M)" style="text;html=1;align=center;verticalAlign=middle;resizable=0;points=[];autosize=1;strokeColor=none;" parent="1" vertex="1">
          <mxGeometry x="-230" y="340" width="40" height="20" as="geometry" />
        </mxCell>
        <mxCell id="usRXnRFZm17M64GT9pBI-34" value="(1,M)" style="text;html=1;align=center;verticalAlign=middle;resizable=0;points=[];autosize=1;strokeColor=none;" parent="1" vertex="1">
          <mxGeometry x="-495" y="170" width="40" height="20" as="geometry" />
        </mxCell>
        <mxCell id="usRXnRFZm17M64GT9pBI-35" value="(1,1)" style="text;html=1;align=center;verticalAlign=middle;resizable=0;points=[];autosize=1;strokeColor=none;" parent="1" vertex="1">
          <mxGeometry x="-495" y="320" width="40" height="20" as="geometry" />
        </mxCell>
        <mxCell id="usRXnRFZm17M64GT9pBI-37" value="(1,1)" style="text;html=1;align=center;verticalAlign=middle;resizable=0;points=[];autosize=1;strokeColor=none;" parent="1" vertex="1">
          <mxGeometry x="-790" y="110" width="40" height="20" as="geometry" />
        </mxCell>
        <mxCell id="usRXnRFZm17M64GT9pBI-38" value="(1,M)" style="text;html=1;align=center;verticalAlign=middle;resizable=0;points=[];autosize=1;strokeColor=none;" parent="1" vertex="1">
          <mxGeometry x="-590" y="110" width="40" height="20" as="geometry" />
        </mxCell>
        <mxCell id="usRXnRFZm17M64GT9pBI-39" value="image" style="text;html=1;align=center;verticalAlign=middle;resizable=0;points=[];autosize=1;strokeColor=none;" parent="1" vertex="1">
          <mxGeometry x="-145" y="290" width="50" height="20" as="geometry" />
        </mxCell>
        <mxCell id="usRXnRFZm17M64GT9pBI-47" value="" style="edgeStyle=orthogonalEdgeStyle;rounded=0;orthogonalLoop=1;jettySize=auto;html=1;" parent="1" source="usRXnRFZm17M64GT9pBI-44" target="usRXnRFZm17M64GT9pBI-46" edge="1">
          <mxGeometry relative="1" as="geometry" />
        </mxCell>
        <mxCell id="usRXnRFZm17M64GT9pBI-44" value="possiede" style="rhombus;whiteSpace=wrap;html=1;rounded=0;" parent="1" vertex="1">
          <mxGeometry x="-940" y="220" width="80" height="80" as="geometry" />
        </mxCell>
        <mxCell id="usRXnRFZm17M64GT9pBI-52" style="edgeStyle=orthogonalEdgeStyle;rounded=0;orthogonalLoop=1;jettySize=auto;html=1;entryX=0.983;entryY=0.543;entryDx=0;entryDy=0;entryPerimeter=0;" parent="1" source="usRXnRFZm17M64GT9pBI-46" target="usRXnRFZm17M64GT9pBI-51" edge="1">
          <mxGeometry relative="1" as="geometry">
            <Array as="points">
              <mxPoint x="-1120" y="231" />
              <mxPoint x="-1120" y="231" />
            </Array>
          </mxGeometry>
        </mxCell>
        <mxCell id="usRXnRFZm17M64GT9pBI-53" style="edgeStyle=orthogonalEdgeStyle;rounded=0;orthogonalLoop=1;jettySize=auto;html=1;entryX=0.986;entryY=0.643;entryDx=0;entryDy=0;entryPerimeter=0;" parent="1" source="usRXnRFZm17M64GT9pBI-46" target="usRXnRFZm17M64GT9pBI-48" edge="1">
          <mxGeometry relative="1" as="geometry">
            <Array as="points">
              <mxPoint x="-1120" y="283" />
              <mxPoint x="-1120" y="283" />
            </Array>
          </mxGeometry>
        </mxCell>
        <mxCell id="usRXnRFZm17M64GT9pBI-55" style="edgeStyle=orthogonalEdgeStyle;rounded=0;orthogonalLoop=1;jettySize=auto;html=1;" parent="1" source="usRXnRFZm17M64GT9pBI-46" target="usRXnRFZm17M64GT9pBI-50" edge="1">
          <mxGeometry relative="1" as="geometry">
            <Array as="points">
              <mxPoint x="-1010" y="300" />
              <mxPoint x="-1010" y="300" />
            </Array>
          </mxGeometry>
        </mxCell>
        <mxCell id="usRXnRFZm17M64GT9pBI-56" style="edgeStyle=orthogonalEdgeStyle;rounded=0;orthogonalLoop=1;jettySize=auto;html=1;" parent="1" source="usRXnRFZm17M64GT9pBI-46" target="usRXnRFZm17M64GT9pBI-49" edge="1">
          <mxGeometry relative="1" as="geometry">
            <Array as="points">
              <mxPoint x="-1095" y="300" />
              <mxPoint x="-1095" y="300" />
            </Array>
          </mxGeometry>
        </mxCell>
        <mxCell id="h6Zp_HKWGdJFtF2wPUyF-13" style="edgeStyle=orthogonalEdgeStyle;rounded=0;orthogonalLoop=1;jettySize=auto;html=1;entryX=0.419;entryY=0.943;entryDx=0;entryDy=0;entryPerimeter=0;" parent="1" source="usRXnRFZm17M64GT9pBI-46" target="h6Zp_HKWGdJFtF2wPUyF-12" edge="1">
          <mxGeometry relative="1" as="geometry">
            <Array as="points">
              <mxPoint x="-1095" y="220" />
              <mxPoint x="-1095" y="220" />
            </Array>
          </mxGeometry>
        </mxCell>
        <mxCell id="usRXnRFZm17M64GT9pBI-46" value="social" style="whiteSpace=wrap;html=1;rounded=0;" parent="1" vertex="1">
          <mxGeometry x="-1110" y="230" width="120" height="60" as="geometry" />
        </mxCell>
        <mxCell id="usRXnRFZm17M64GT9pBI-48" value="facebook" style="text;html=1;align=center;verticalAlign=middle;resizable=0;points=[];autosize=1;strokeColor=none;" parent="1" vertex="1">
          <mxGeometry x="-1200" y="270" width="70" height="20" as="geometry" />
        </mxCell>
        <mxCell id="usRXnRFZm17M64GT9pBI-49" value="instagram" style="text;html=1;align=center;verticalAlign=middle;resizable=0;points=[];autosize=1;strokeColor=none;" parent="1" vertex="1">
          <mxGeometry x="-1130" y="320" width="70" height="20" as="geometry" />
        </mxCell>
        <mxCell id="usRXnRFZm17M64GT9pBI-50" value="twitter" style="text;html=1;align=center;verticalAlign=middle;resizable=0;points=[];autosize=1;strokeColor=none;" parent="1" vertex="1">
          <mxGeometry x="-1035" y="320" width="50" height="20" as="geometry" />
        </mxCell>
        <mxCell id="usRXnRFZm17M64GT9pBI-51" value="linkedin" style="text;html=1;align=center;verticalAlign=middle;resizable=0;points=[];autosize=1;strokeColor=none;" parent="1" vertex="1">
          <mxGeometry x="-1190" y="220" width="60" height="20" as="geometry" />
        </mxCell>
        <mxCell id="usRXnRFZm17M64GT9pBI-57" value="(0,M)" style="text;html=1;align=center;verticalAlign=middle;resizable=0;points=[];autosize=1;strokeColor=none;" parent="1" vertex="1">
          <mxGeometry x="-855" y="170" width="40" height="20" as="geometry" />
        </mxCell>
        <mxCell id="usRXnRFZm17M64GT9pBI-58" value="(1,M)" style="text;html=1;align=center;verticalAlign=middle;resizable=0;points=[];autosize=1;strokeColor=none;" parent="1" vertex="1">
          <mxGeometry x="-990" y="230" width="40" height="20" as="geometry" />
        </mxCell>
        <mxCell id="h6Zp_HKWGdJFtF2wPUyF-4" value="&lt;u&gt;idimmobile&lt;/u&gt;" style="text;html=1;align=center;verticalAlign=middle;resizable=0;points=[];autosize=1;strokeColor=none;" parent="1" vertex="1">
          <mxGeometry x="-409" y="140" width="80" height="20" as="geometry" />
        </mxCell>
        <mxCell id="h6Zp_HKWGdJFtF2wPUyF-6" value="&lt;u&gt;idAtt_tirustiche&lt;/u&gt;" style="text;html=1;align=center;verticalAlign=middle;resizable=0;points=[];autosize=1;strokeColor=none;" parent="1" vertex="1">
          <mxGeometry x="-95" y="290" width="100" height="20" as="geometry" />
        </mxCell>
        <mxCell id="h6Zp_HKWGdJFtF2wPUyF-8" value="&lt;u&gt;idAppartamenti&lt;/u&gt;" style="text;html=1;align=center;verticalAlign=middle;resizable=0;points=[];autosize=1;strokeColor=none;" parent="1" vertex="1">
          <mxGeometry x="-429" y="420" width="100" height="20" as="geometry" />
        </mxCell>
        <mxCell id="h6Zp_HKWGdJFtF2wPUyF-9" value="" style="endArrow=classic;html=1;entryX=-0.02;entryY=-0.071;entryDx=0;entryDy=0;entryPerimeter=0;" parent="1" source="FqCilQHqINg6GPOchnON-4" target="h6Zp_HKWGdJFtF2wPUyF-8" edge="1">
          <mxGeometry width="50" height="50" relative="1" as="geometry">
            <mxPoint x="-470" y="480" as="sourcePoint" />
            <mxPoint x="-420" y="430" as="targetPoint" />
          </mxGeometry>
        </mxCell>
        <mxCell id="h6Zp_HKWGdJFtF2wPUyF-10" value="&lt;u&gt;idrecensioni&lt;/u&gt;" style="text;html=1;align=center;verticalAlign=middle;resizable=0;points=[];autosize=1;strokeColor=none;" parent="1" vertex="1">
          <mxGeometry x="-925" y="350" width="80" height="20" as="geometry" />
        </mxCell>
        <mxCell id="h6Zp_HKWGdJFtF2wPUyF-12" value="&lt;u&gt;idsocial&lt;/u&gt;" style="text;html=1;align=center;verticalAlign=middle;resizable=0;points=[];autosize=1;strokeColor=none;" parent="1" vertex="1">
          <mxGeometry x="-1120" y="180" width="60" height="20" as="geometry" />
        </mxCell>
      </root>
    </mxGraphModel>
  </diagram>
</mxfile>
